<svg width="139" height="49" viewBox="0 0 139 49" fill="none" xmlns="http://www.w3.org/2000/svg">
<path d="M12.48 5.568V48H6.208V14.656C3.776 16.576 2.112 19.328 2.112 22.464C2.112 23.168 2.176 23.872 2.368 24.512C1.152 22.336 0.192 19.136 0.192 16.64C0.192 7.488 10.432 7.936 10.88 -3.8147e-06C12.288 1.856 12.48 3.328 12.48 5.568ZM17.819 40.832H25.179L25.755 40.448C23.515 37.376 14.363 34.624 14.363 30.528C14.363 28.416 15.323 26.304 16.475 24.576C19.291 20.16 21.979 19.264 27.099 19.264C28.827 19.264 33.755 19.52 33.755 21.952C33.755 22.848 31.451 27.904 30.555 27.904C30.491 27.904 30.427 27.84 30.363 27.84C31.131 25.664 26.587 25.408 25.307 25.408C23.387 25.408 21.339 25.6 19.483 26.176C23.899 29.376 28.571 32.256 32.795 35.648C33.627 36.288 34.139 36.928 34.139 38.016C34.139 39.04 33.627 39.936 33.243 40.832H41.435L43.419 48H14.235L17.819 40.832ZM54.643 48H42.803C40.435 48 38.579 46.08 38.579 43.712C38.579 33.088 38.515 22.4 38.515 11.776C38.515 11.392 38.515 9.792 38.579 9.472C39.155 7.424 43.571 4.992 45.171 3.328C45.555 3.328 45.619 3.648 45.619 3.904L45.683 38.592C45.683 39.424 46.451 40.832 47.411 40.832H53.107L54.643 48ZM78.9505 40.832L80.9345 48H68.3265C66.4705 48 65.4465 46.656 64.9345 45.056C62.9505 46.784 60.3905 47.936 57.7025 47.936C53.1585 47.936 49.3185 44.736 49.3185 40.064C49.3185 34.432 56.4865 30.976 60.4545 28.096C62.3745 26.688 69.0305 21.632 69.0305 19.328V19.136C70.8225 20.48 71.5905 22.848 71.5905 24.96C71.5905 27.648 69.9905 29.12 68.0705 30.72C66.5345 32 55.9105 39.872 55.9105 40.768C55.9105 42.176 60.5825 42.688 61.6705 42.688C62.5025 42.688 64.5505 42.56 64.5505 41.344V36.096C64.5505 35.008 70.3745 29.824 71.5265 29.44C71.5905 29.632 71.6545 29.888 71.6545 30.08C71.6545 33.664 71.5265 37.248 71.4625 40.832H78.9505ZM123.427 40.832L125.091 48C121.763 48 118.435 48.064 115.107 48.064C110.371 48.064 108.963 46.336 108.963 41.728C108.963 39.104 109.411 26.944 107.939 25.472C107.619 25.152 107.299 24.96 106.851 24.96C104.483 24.96 102.755 29.952 102.243 31.808C101.347 35.072 101.155 38.464 101.155 41.856C101.155 43.904 101.219 45.952 101.219 48H93.859C93.987 44.864 94.051 41.664 94.051 38.528C94.051 36.672 94.051 26.304 92.387 25.792C92.195 25.728 91.939 25.728 91.747 25.728C88.995 25.728 87.971 30.016 87.395 32.064C85.923 37.312 84.899 42.688 83.875 48H77.411V21.376C77.411 20.672 76.963 19.776 76.451 19.328H84.515V31.168C86.563 27.072 91.555 19.52 96.675 19.52C100.771 19.52 101.283 24.512 101.283 27.584C103.331 24.32 107.107 19.456 111.331 19.456C114.467 19.456 116.131 23.104 116.131 25.856C116.131 29.824 116.067 33.792 116.067 37.76C116.067 40.512 117.859 40.96 119.907 40.96C121.123 40.96 122.339 40.832 123.427 40.832ZM136.162 40.832L138.146 48H125.474C122.594 48 121.698 44.8 121.698 42.432V21.376C121.698 20.608 121.314 19.84 120.802 19.328H128.802V37.568C128.802 38.592 129.122 40.832 130.53 40.832H136.162ZM128.93 11.84L125.154 15.616L121.442 11.84L125.154 8.064L128.93 11.84Z" fill="url(#paint0_linear_11_23)"/>
<defs>
<linearGradient id="paint0_linear_11_23" x1="66.5" y1="-5" x2="66.5" y2="72" gradientUnits="userSpaceOnUse">
<stop stop-color="#C0A37C"/>
<stop offset="1" stop-color="#FFD482"/>
</linearGradient>
</defs>
</svg>
